<mxfile host="app.diagrams.net" agent="Mozilla/5.0 (Windows NT 10.0; Win64; x64) AppleWebKit/537.36 (KHTML, like Gecko) Chrome/131.0.0.0 Safari/537.36 Edg/131.0.0.0" version="25.0.3">
  <diagram name="Page-1" id="vs1dAAM67RGaubtNKUyg">
    <mxGraphModel dx="1226" dy="665" grid="1" gridSize="10" guides="1" tooltips="1" connect="1" arrows="1" fold="1" page="1" pageScale="1" pageWidth="827" pageHeight="1169" math="0" shadow="0">
      <root>
        <mxCell id="0" />
        <mxCell id="1" parent="0" />
        <mxCell id="_n6pVRCSnAXcFNbErlpD-15" style="edgeStyle=orthogonalEdgeStyle;rounded=0;orthogonalLoop=1;jettySize=auto;html=1;entryX=0.087;entryY=-0.085;entryDx=0;entryDy=0;entryPerimeter=0;" edge="1" parent="1" source="_n6pVRCSnAXcFNbErlpD-1" target="_n6pVRCSnAXcFNbErlpD-12">
          <mxGeometry relative="1" as="geometry">
            <Array as="points">
              <mxPoint x="195" y="170" />
            </Array>
          </mxGeometry>
        </mxCell>
        <mxCell id="_n6pVRCSnAXcFNbErlpD-17" value="Request purchase details" style="edgeLabel;html=1;align=center;verticalAlign=middle;resizable=0;points=[];rotation=-90;" vertex="1" connectable="0" parent="_n6pVRCSnAXcFNbErlpD-15">
          <mxGeometry x="0.2393" relative="1" as="geometry">
            <mxPoint y="16" as="offset" />
          </mxGeometry>
        </mxCell>
        <mxCell id="_n6pVRCSnAXcFNbErlpD-1" value="Search Purchase" style="ellipse;whiteSpace=wrap;html=1;fillColor=#f8cecc;strokeColor=#b85450;" vertex="1" parent="1">
          <mxGeometry x="310" y="150" width="120" height="80" as="geometry" />
        </mxCell>
        <mxCell id="_n6pVRCSnAXcFNbErlpD-4" style="edgeStyle=orthogonalEdgeStyle;rounded=0;orthogonalLoop=1;jettySize=auto;html=1;exitX=0.5;exitY=0;exitDx=0;exitDy=0;entryX=0.5;entryY=0;entryDx=0;entryDy=0;" edge="1" parent="1" source="_n6pVRCSnAXcFNbErlpD-2" target="_n6pVRCSnAXcFNbErlpD-1">
          <mxGeometry relative="1" as="geometry">
            <Array as="points">
              <mxPoint x="90" y="130" />
              <mxPoint x="370" y="130" />
            </Array>
          </mxGeometry>
        </mxCell>
        <mxCell id="_n6pVRCSnAXcFNbErlpD-5" value="Request to View Purchases&amp;nbsp;" style="edgeLabel;html=1;align=center;verticalAlign=middle;resizable=0;points=[];" vertex="1" connectable="0" parent="_n6pVRCSnAXcFNbErlpD-4">
          <mxGeometry x="0.3156" relative="1" as="geometry">
            <mxPoint as="offset" />
          </mxGeometry>
        </mxCell>
        <mxCell id="_n6pVRCSnAXcFNbErlpD-2" value="Customer" style="rounded=0;whiteSpace=wrap;html=1;fillColor=#dae8fc;strokeColor=#6c8ebf;" vertex="1" parent="1">
          <mxGeometry x="30" y="330" width="120" height="40" as="geometry" />
        </mxCell>
        <mxCell id="_n6pVRCSnAXcFNbErlpD-39" style="edgeStyle=orthogonalEdgeStyle;rounded=0;orthogonalLoop=1;jettySize=auto;html=1;" edge="1" parent="1" source="_n6pVRCSnAXcFNbErlpD-3" target="_n6pVRCSnAXcFNbErlpD-1">
          <mxGeometry relative="1" as="geometry">
            <Array as="points">
              <mxPoint x="810" y="620" />
              <mxPoint x="810" y="190" />
            </Array>
          </mxGeometry>
        </mxCell>
        <mxCell id="_n6pVRCSnAXcFNbErlpD-40" value="Manages Search&amp;nbsp;" style="edgeLabel;html=1;align=center;verticalAlign=middle;resizable=0;points=[];" vertex="1" connectable="0" parent="_n6pVRCSnAXcFNbErlpD-39">
          <mxGeometry x="0.4898" y="3" relative="1" as="geometry">
            <mxPoint as="offset" />
          </mxGeometry>
        </mxCell>
        <mxCell id="_n6pVRCSnAXcFNbErlpD-3" value="Admin" style="rounded=0;whiteSpace=wrap;html=1;fillColor=#d5e8d4;strokeColor=#82b366;" vertex="1" parent="1">
          <mxGeometry x="620" y="600" width="120" height="40" as="geometry" />
        </mxCell>
        <mxCell id="_n6pVRCSnAXcFNbErlpD-20" style="edgeStyle=orthogonalEdgeStyle;rounded=0;orthogonalLoop=1;jettySize=auto;html=1;entryX=0.5;entryY=0;entryDx=0;entryDy=0;" edge="1" parent="1" source="_n6pVRCSnAXcFNbErlpD-6" target="_n6pVRCSnAXcFNbErlpD-7">
          <mxGeometry relative="1" as="geometry" />
        </mxCell>
        <mxCell id="_n6pVRCSnAXcFNbErlpD-21" value="Filter Search based on Customer Prameters" style="edgeLabel;html=1;align=center;verticalAlign=middle;resizable=0;points=[];" vertex="1" connectable="0" parent="_n6pVRCSnAXcFNbErlpD-20">
          <mxGeometry x="0.0416" y="-1" relative="1" as="geometry">
            <mxPoint as="offset" />
          </mxGeometry>
        </mxCell>
        <mxCell id="_n6pVRCSnAXcFNbErlpD-6" value="Filter Purchases" style="ellipse;whiteSpace=wrap;html=1;fillColor=#dae8fc;strokeColor=#6c8ebf;" vertex="1" parent="1">
          <mxGeometry x="320" y="360" width="120" height="80" as="geometry" />
        </mxCell>
        <mxCell id="_n6pVRCSnAXcFNbErlpD-22" style="edgeStyle=orthogonalEdgeStyle;rounded=0;orthogonalLoop=1;jettySize=auto;html=1;entryX=0.75;entryY=1;entryDx=0;entryDy=0;" edge="1" parent="1" source="_n6pVRCSnAXcFNbErlpD-7" target="_n6pVRCSnAXcFNbErlpD-12">
          <mxGeometry relative="1" as="geometry" />
        </mxCell>
        <mxCell id="_n6pVRCSnAXcFNbErlpD-23" value="Request Purchase Data" style="edgeLabel;html=1;align=center;verticalAlign=middle;resizable=0;points=[];rotation=-90;" vertex="1" connectable="0" parent="_n6pVRCSnAXcFNbErlpD-22">
          <mxGeometry x="0.1438" y="-2" relative="1" as="geometry">
            <mxPoint y="-23" as="offset" />
          </mxGeometry>
        </mxCell>
        <mxCell id="_n6pVRCSnAXcFNbErlpD-7" value="Retrive Purchase&lt;div&gt;History&lt;/div&gt;" style="ellipse;whiteSpace=wrap;html=1;fillColor=#e1d5e7;strokeColor=#9673a6;" vertex="1" parent="1">
          <mxGeometry x="320" y="570" width="120" height="80" as="geometry" />
        </mxCell>
        <mxCell id="_n6pVRCSnAXcFNbErlpD-30" value="Retrive Purchase Data" style="edgeStyle=orthogonalEdgeStyle;rounded=0;orthogonalLoop=1;jettySize=auto;html=1;entryX=0.25;entryY=1;entryDx=0;entryDy=0;startArrow=classic;startFill=1;endArrow=none;endFill=0;" edge="1" parent="1" source="_n6pVRCSnAXcFNbErlpD-8" target="_n6pVRCSnAXcFNbErlpD-12">
          <mxGeometry x="-0.0466" y="-5" relative="1" as="geometry">
            <Array as="points">
              <mxPoint x="380" y="750" />
              <mxPoint x="205" y="750" />
            </Array>
            <mxPoint as="offset" />
          </mxGeometry>
        </mxCell>
        <mxCell id="_n6pVRCSnAXcFNbErlpD-31" style="edgeStyle=orthogonalEdgeStyle;rounded=0;orthogonalLoop=1;jettySize=auto;html=1;" edge="1" parent="1">
          <mxGeometry relative="1" as="geometry">
            <mxPoint x="329.940064878928" y="850.0588235294117" as="sourcePoint" />
            <mxPoint x="99.99882352941171" y="370" as="targetPoint" />
          </mxGeometry>
        </mxCell>
        <mxCell id="_n6pVRCSnAXcFNbErlpD-32" value="Sends Purchase Data&amp;nbsp; &amp;nbsp;" style="edgeLabel;html=1;align=center;verticalAlign=middle;resizable=0;points=[];rotation=0;" vertex="1" connectable="0" parent="_n6pVRCSnAXcFNbErlpD-31">
          <mxGeometry x="0.2231" relative="1" as="geometry">
            <mxPoint as="offset" />
          </mxGeometry>
        </mxCell>
        <mxCell id="_n6pVRCSnAXcFNbErlpD-37" style="edgeStyle=orthogonalEdgeStyle;rounded=0;orthogonalLoop=1;jettySize=auto;html=1;entryX=0.5;entryY=1;entryDx=0;entryDy=0;exitX=0.63;exitY=0.964;exitDx=0;exitDy=0;exitPerimeter=0;" edge="1" parent="1" source="_n6pVRCSnAXcFNbErlpD-8" target="_n6pVRCSnAXcFNbErlpD-3">
          <mxGeometry relative="1" as="geometry">
            <mxPoint x="400" y="920" as="sourcePoint" />
            <Array as="points">
              <mxPoint x="396" y="900" />
              <mxPoint x="680" y="900" />
            </Array>
          </mxGeometry>
        </mxCell>
        <mxCell id="_n6pVRCSnAXcFNbErlpD-38" value="Manages Filter Purchase Report" style="edgeLabel;html=1;align=center;verticalAlign=middle;resizable=0;points=[];" vertex="1" connectable="0" parent="_n6pVRCSnAXcFNbErlpD-37">
          <mxGeometry x="-0.5259" y="-1" relative="1" as="geometry">
            <mxPoint as="offset" />
          </mxGeometry>
        </mxCell>
        <mxCell id="_n6pVRCSnAXcFNbErlpD-8" value="Formatted Purchase&amp;nbsp;&lt;div&gt;Data&amp;nbsp;&lt;/div&gt;" style="ellipse;whiteSpace=wrap;html=1;fillColor=#fff2cc;strokeColor=#d6b656;" vertex="1" parent="1">
          <mxGeometry x="320" y="820" width="120" height="80" as="geometry" />
        </mxCell>
        <mxCell id="_n6pVRCSnAXcFNbErlpD-10" value="" style="endArrow=none;html=1;rounded=0;" edge="1" parent="1">
          <mxGeometry width="50" height="50" relative="1" as="geometry">
            <mxPoint x="190" y="400" as="sourcePoint" />
            <mxPoint x="260" y="400" as="targetPoint" />
          </mxGeometry>
        </mxCell>
        <mxCell id="_n6pVRCSnAXcFNbErlpD-11" value="" style="endArrow=none;html=1;rounded=0;" edge="1" parent="1">
          <mxGeometry width="50" height="50" relative="1" as="geometry">
            <mxPoint x="190" y="430" as="sourcePoint" />
            <mxPoint x="260" y="430" as="targetPoint" />
          </mxGeometry>
        </mxCell>
        <mxCell id="_n6pVRCSnAXcFNbErlpD-13" style="edgeStyle=orthogonalEdgeStyle;rounded=0;orthogonalLoop=1;jettySize=auto;html=1;" edge="1" parent="1" source="_n6pVRCSnAXcFNbErlpD-12" target="_n6pVRCSnAXcFNbErlpD-1">
          <mxGeometry relative="1" as="geometry">
            <Array as="points">
              <mxPoint x="220" y="190" />
            </Array>
          </mxGeometry>
        </mxCell>
        <mxCell id="_n6pVRCSnAXcFNbErlpD-14" value="gets purchase data" style="edgeLabel;html=1;align=center;verticalAlign=middle;resizable=0;points=[];rotation=-90;" vertex="1" connectable="0" parent="_n6pVRCSnAXcFNbErlpD-13">
          <mxGeometry x="-0.256" y="2" relative="1" as="geometry">
            <mxPoint as="offset" />
          </mxGeometry>
        </mxCell>
        <mxCell id="_n6pVRCSnAXcFNbErlpD-12" value="Purchase" style="text;html=1;align=center;verticalAlign=middle;whiteSpace=wrap;rounded=0;" vertex="1" parent="1">
          <mxGeometry x="190" y="400" width="60" height="30" as="geometry" />
        </mxCell>
        <mxCell id="_n6pVRCSnAXcFNbErlpD-18" style="edgeStyle=orthogonalEdgeStyle;rounded=0;orthogonalLoop=1;jettySize=auto;html=1;entryX=0.417;entryY=0;entryDx=0;entryDy=0;entryPerimeter=0;" edge="1" parent="1" source="_n6pVRCSnAXcFNbErlpD-1" target="_n6pVRCSnAXcFNbErlpD-6">
          <mxGeometry relative="1" as="geometry" />
        </mxCell>
        <mxCell id="_n6pVRCSnAXcFNbErlpD-19" value="Sends Search Citeria" style="edgeLabel;html=1;align=center;verticalAlign=middle;resizable=0;points=[];rotation=-90;" vertex="1" connectable="0" parent="_n6pVRCSnAXcFNbErlpD-18">
          <mxGeometry x="-0.0315" relative="1" as="geometry">
            <mxPoint as="offset" />
          </mxGeometry>
        </mxCell>
        <mxCell id="_n6pVRCSnAXcFNbErlpD-25" value="" style="endArrow=none;html=1;rounded=0;" edge="1" parent="1">
          <mxGeometry width="50" height="50" relative="1" as="geometry">
            <mxPoint x="620" y="384.41" as="sourcePoint" />
            <mxPoint x="690" y="384.41" as="targetPoint" />
          </mxGeometry>
        </mxCell>
        <mxCell id="_n6pVRCSnAXcFNbErlpD-26" value="" style="endArrow=none;html=1;rounded=0;" edge="1" parent="1">
          <mxGeometry width="50" height="50" relative="1" as="geometry">
            <mxPoint x="620" y="414.41" as="sourcePoint" />
            <mxPoint x="690" y="414.41" as="targetPoint" />
          </mxGeometry>
        </mxCell>
        <mxCell id="_n6pVRCSnAXcFNbErlpD-28" style="edgeStyle=orthogonalEdgeStyle;rounded=0;orthogonalLoop=1;jettySize=auto;html=1;entryX=1;entryY=0.5;entryDx=0;entryDy=0;" edge="1" parent="1" source="_n6pVRCSnAXcFNbErlpD-27" target="_n6pVRCSnAXcFNbErlpD-7">
          <mxGeometry relative="1" as="geometry" />
        </mxCell>
        <mxCell id="_n6pVRCSnAXcFNbErlpD-29" value="Get User Data" style="edgeLabel;html=1;align=center;verticalAlign=middle;resizable=0;points=[];rotation=-90;" vertex="1" connectable="0" parent="_n6pVRCSnAXcFNbErlpD-28">
          <mxGeometry x="0.1198" y="1" relative="1" as="geometry">
            <mxPoint as="offset" />
          </mxGeometry>
        </mxCell>
        <mxCell id="_n6pVRCSnAXcFNbErlpD-27" value="User" style="text;html=1;align=center;verticalAlign=middle;whiteSpace=wrap;rounded=0;" vertex="1" parent="1">
          <mxGeometry x="620" y="384.41" width="60" height="30" as="geometry" />
        </mxCell>
        <mxCell id="_n6pVRCSnAXcFNbErlpD-35" style="edgeStyle=orthogonalEdgeStyle;rounded=0;orthogonalLoop=1;jettySize=auto;html=1;entryX=0.897;entryY=0.246;entryDx=0;entryDy=0;entryPerimeter=0;" edge="1" parent="1">
          <mxGeometry relative="1" as="geometry">
            <mxPoint x="632.36" y="414.4129411764707" as="sourcePoint" />
            <mxPoint x="439.9999999999999" y="854.7400000000001" as="targetPoint" />
            <Array as="points">
              <mxPoint x="632" y="504.58" />
              <mxPoint x="600" y="504.58" />
              <mxPoint x="600" y="854.58" />
            </Array>
          </mxGeometry>
        </mxCell>
        <mxCell id="_n6pVRCSnAXcFNbErlpD-36" value="Retrieve Customer Data&amp;nbsp;" style="edgeLabel;html=1;align=center;verticalAlign=middle;resizable=0;points=[];" vertex="1" connectable="0" parent="_n6pVRCSnAXcFNbErlpD-35">
          <mxGeometry x="0.0995" y="6" relative="1" as="geometry">
            <mxPoint as="offset" />
          </mxGeometry>
        </mxCell>
        <mxCell id="_n6pVRCSnAXcFNbErlpD-41" value="3,1" style="text;html=1;align=center;verticalAlign=middle;whiteSpace=wrap;rounded=0;" vertex="1" parent="1">
          <mxGeometry x="340" y="150" width="60" height="30" as="geometry" />
        </mxCell>
        <mxCell id="_n6pVRCSnAXcFNbErlpD-42" value="3.2" style="text;html=1;align=center;verticalAlign=middle;whiteSpace=wrap;rounded=0;" vertex="1" parent="1">
          <mxGeometry x="340" y="360" width="60" height="30" as="geometry" />
        </mxCell>
        <mxCell id="_n6pVRCSnAXcFNbErlpD-43" value="3.3" style="text;html=1;align=center;verticalAlign=middle;whiteSpace=wrap;rounded=0;" vertex="1" parent="1">
          <mxGeometry x="350" y="570" width="60" height="30" as="geometry" />
        </mxCell>
        <mxCell id="_n6pVRCSnAXcFNbErlpD-44" value="3,4" style="text;html=1;align=center;verticalAlign=middle;whiteSpace=wrap;rounded=0;" vertex="1" parent="1">
          <mxGeometry x="350" y="820" width="60" height="30" as="geometry" />
        </mxCell>
      </root>
    </mxGraphModel>
  </diagram>
</mxfile>
